<?xml version="1.0" encoding="UTF-8" standalone="no"?>
<!-- Created with Inkscape (http://www.inkscape.org/) -->

<svg
   xmlns:dc="http://purl.org/dc/elements/1.1/"
   xmlns:cc="http://creativecommons.org/ns#"
   xmlns:rdf="http://www.w3.org/1999/02/22-rdf-syntax-ns#"
   xmlns:svg="http://www.w3.org/2000/svg"
   xmlns="http://www.w3.org/2000/svg"
   xmlns:xlink="http://www.w3.org/1999/xlink"
   xmlns:sodipodi="http://sodipodi.sourceforge.net/DTD/sodipodi-0.dtd"
   xmlns:inkscape="http://www.inkscape.org/namespaces/inkscape"
   version="1.0"
   width="500"
   height="499.99997"
   viewBox="-0.811 -0.732 1708 1708"
   id="svg11310"
   xml:space="preserve"
   sodipodi:version="0.32"
   inkscape:version="0.91 r13725"
   sodipodi:docname="Cadenas-ouvert-vert.svg"
   inkscape:output_extension="org.inkscape.output.svg.inkscape"><metadata
     id="metadata52"><rdf:RDF><cc:Work
         rdf:about=""><dc:format>image/svg+xml</dc:format><dc:type
           rdf:resource="http://purl.org/dc/dcmitype/StillImage" /><cc:license
           rdf:resource="http://creativecommons.org/licenses/by-sa/3.0/" /><dc:source>http://commons.wikimedia.org/wiki/Image:Crystal_Clear_action_exit.svg http://commons.wikimedia.org/wiki/Image:Crystal_Clear_action_lock1.png</dc:source><dc:title>Cadenas ouvert vert</dc:title><dc:date>20080613</dc:date><dc:creator><cc:Agent><dc:title>Jérôme Borme</dc:title></cc:Agent></dc:creator><dc:contributor><cc:Agent><dc:title>Everaldo Coelho, YellowIcon</dc:title></cc:Agent></dc:contributor></cc:Work><cc:License
         rdf:about="http://creativecommons.org/licenses/by-sa/3.0/"><cc:permits
           rdf:resource="http://creativecommons.org/ns#Reproduction" /><cc:permits
           rdf:resource="http://creativecommons.org/ns#Distribution" /><cc:requires
           rdf:resource="http://creativecommons.org/ns#Notice" /><cc:requires
           rdf:resource="http://creativecommons.org/ns#Attribution" /><cc:permits
           rdf:resource="http://creativecommons.org/ns#DerivativeWorks" /><cc:requires
           rdf:resource="http://creativecommons.org/ns#ShareAlike" /></cc:License></rdf:RDF></metadata><sodipodi:namedview
     inkscape:cy="283.9227"
     inkscape:cx="-253.08492"
     inkscape:zoom="0.6138151"
     inkscape:window-height="1030"
     inkscape:window-width="1920"
     inkscape:pageshadow="2"
     inkscape:pageopacity="0"
     guidetolerance="10000"
     gridtolerance="10000"
     objecttolerance="10000"
     borderopacity="1.0"
     bordercolor="#666666"
     pagecolor="#71bab8"
     id="base"
     showgrid="true"
     inkscape:document-units="mm"
     inkscape:window-x="0"
     inkscape:window-y="0"
     inkscape:current-layer="layer1"
     showguides="true"
     inkscape:guide-bbox="true"
     inkscape:window-maximized="1" /><defs
     id="defs11312"><inkscape:perspective
       sodipodi:type="inkscape:persp3d"
       inkscape:vp_x="0 : 249.99998 : 1"
       inkscape:vp_y="0 : 1000 : 0"
       inkscape:vp_z="500 : 249.99998 : 1"
       inkscape:persp3d-origin="250 : 166.66666 : 1"
       id="perspective54" /><linearGradient
       id="linearGradient19837"><stop
         style="stop-color:#00b415;stop-opacity:1;"
         offset="0"
         id="stop19839" /><stop
         style="stop-color:#00b415;stop-opacity:0;"
         offset="1"
         id="stop19841" /></linearGradient><linearGradient
       id="linearGradient14977"><stop
         style="stop-color:white;stop-opacity:0.47058824"
         offset="0"
         id="stop14979" /><stop
         style="stop-color:white;stop-opacity:0.70588237"
         offset="1"
         id="stop14981" /></linearGradient><linearGradient
       id="linearGradient14071"><stop
         style="stop-color:white;stop-opacity:1"
         offset="0"
         id="stop14073" /><stop
         style="stop-color:white;stop-opacity:0"
         offset="1"
         id="stop14075" /></linearGradient><linearGradient
       id="linearGradient14012"><stop
         style="stop-color:#00dc19;stop-opacity:1;"
         offset="0"
         id="stop14014" /><stop
         style="stop-color:#01ff5b;stop-opacity:0.58823532;"
         offset="1"
         id="stop14016" /></linearGradient><linearGradient
       id="linearGradient14004"><stop
         style="stop-color:white;stop-opacity:1"
         offset="0"
         id="stop14006" /><stop
         style="stop-color:white;stop-opacity:0"
         offset="1"
         id="stop14008" /></linearGradient><linearGradient
       x1="1531.1748"
       y1="-710.26196"
       x2="514.25446"
       y2="1775.3436"
       id="linearGradient14010"
       xlink:href="#linearGradient14012"
       gradientUnits="userSpaceOnUse"
       gradientTransform="matrix(0.995461,0,0,0.995461,3.833802,3.912899)" /><linearGradient
       x1="1026.7279"
       y1="1147.7113"
       x2="1703.623"
       y2="1703.6219"
       id="linearGradient14022"
       xlink:href="#linearGradient14012"
       gradientUnits="userSpaceOnUse"
       gradientTransform="matrix(0.995461,0,0,0.995461,3.833802,3.912899)" /><linearGradient
       x1="853.22852"
       y1="6994.7397"
       x2="853.22852"
       y2="-1149.4908"
       id="linearGradient14077"
       xlink:href="#linearGradient14071"
       gradientUnits="userSpaceOnUse" /><linearGradient
       x1="1678.5588"
       y1="288.91214"
       x2="1678.5588"
       y2="1417.6237"
       id="linearGradient19843"
       xlink:href="#linearGradient19837"
       gradientUnits="userSpaceOnUse" /><inkscape:perspective
       id="perspective2493"
       inkscape:persp3d-origin="372.04724 : 350.78739 : 1"
       inkscape:vp_z="744.09448 : 526.18109 : 1"
       inkscape:vp_y="0 : 1000 : 0"
       inkscape:vp_x="0 : 526.18109 : 1"
       sodipodi:type="inkscape:persp3d" /></defs><g
     transform="translate(-5.210447e-5,4.612732e-5)"
     style="opacity:1;display:inline"
     id="layer1"><path
       d="M 1417.5448,1699.8019 C 1573.387,1699.8019 1699.7228,1573.4671 1699.7228,1417.6237"
       style="fill:none;fill-opacity:0.07843137;stroke:#e83131;stroke-width:10.2480011;stroke-linecap:round;stroke-linejoin:round;stroke-miterlimit:100;stroke-dasharray:none;stroke-opacity:0.66666667"
       id="path17680" /><path
       d="M 6.6549519,1417.6237 C 6.6549519,1573.4671 132.99081,1699.8019 288.83311,1699.8019"
       style="fill:none;fill-opacity:0.07843137;stroke:#e83131;stroke-width:10.2480011;stroke-linecap:round;stroke-linejoin:round;stroke-miterlimit:100;stroke-dasharray:none;stroke-opacity:0.66666667"
       id="path17682" /><line
       style="fill:none;fill-opacity:0.07843137;stroke:#e83131;stroke-width:10.2480011;stroke-linecap:round;stroke-linejoin:round;stroke-miterlimit:100;stroke-dasharray:none;stroke-opacity:0.66666667"
       id="line17684"
       y2="1699.802"
       x2="1417.5448"
       y1="1699.802"
       x1="288.83316"
       stroke-miterlimit="500" /><line
       style="fill:none;fill-opacity:0.07843137;stroke:#e83131;stroke-width:10.2480011;stroke-linecap:round;stroke-linejoin:round;stroke-miterlimit:100;stroke-dasharray:none;stroke-opacity:0.66666667"
       id="line17690"
       y2="1417.6238"
       x2="6.654954"
       y1="288.91214"
       x1="6.654954"
       stroke-miterlimit="500" /><path
       d="M 288.83311,6.7339793 C 132.99081,6.7339793 6.6549519,133.06984 6.6549519,288.91214"
       style="fill:none;fill-opacity:0.07843137;stroke:#e83131;stroke-width:10.2480011;stroke-linecap:round;stroke-linejoin:round;stroke-miterlimit:100;stroke-dasharray:none;stroke-opacity:0.66666667"
       id="path17692" /><line
       style="fill:none;fill-opacity:0.07843137;stroke:#e83131;stroke-width:10.2480011;stroke-linecap:round;stroke-linejoin:round;stroke-miterlimit:100;stroke-dasharray:none;stroke-opacity:0.66666667"
       id="line17694"
       y2="6.733994"
       x2="288.83316"
       y1="6.733994"
       x1="1417.5448"
       stroke-miterlimit="500" /><line
       style="fill:none;fill-opacity:0.07843137;stroke:#e83131;stroke-width:10.2480011;stroke-linecap:round;stroke-linejoin:round;stroke-miterlimit:100;stroke-dasharray:none;stroke-opacity:0.66666667"
       id="line17700"
       y2="288.91214"
       x2="1699.7231"
       y1="1417.6238"
       x1="1699.7231"
       stroke-miterlimit="500" /><path
       d="M 1699.7228,288.91214 C 1699.7228,214.07442 1669.9934,142.30174 1617.0748,89.383072 C 1564.1561,36.464399 1492.3835,6.7349693 1417.5457,6.7349693 L 288.83311,6.7349693 C 213.9944,6.7349693 142.22172,36.464399 89.303052,89.383072 C 36.385372,142.30174 6.6549519,214.07442 6.6549519,288.91214 L 6.6549519,1417.6237 C 6.6549519,1492.4625 36.384382,1564.2352 89.303052,1617.1528 C 142.22172,1670.0716 213.9944,1699.801 288.83311,1699.801 L 1417.5448,1699.801 C 1492.3835,1699.801 1564.1552,1670.0716 1617.0738,1617.1528 C 1669.9925,1564.2352 1699.7219,1492.4615 1699.7219,1417.6237 L 1699.7219,288.91214 L 1699.7228,288.91214 z "
       style="opacity:1;fill:url(#linearGradient14022);fill-opacity:1;fill-rule:evenodd;display:inline"
       id="path17668" /><path
       d="M 1417.5448,1671.5836 C 1558.5029,1661.1612 1674.5607,1556.7094 1699.7228,1417.6237 C 1699.7228,1573.4671 1573.387,1699.8019 1417.5448,1699.8019 L 288.83311,1699.8019 C 132.99081,1699.8019 6.6549519,1573.4671 6.6549519,1417.6237 C 31.816212,1556.7094 147.87494,1661.1612 288.83311,1671.5836 L 1417.5448,1671.5836 z "
       style="fill:white;fill-opacity:0.25842698;fill-rule:evenodd"
       id="path11342" /><path
       d="M 1417.5448,1699.8019 C 1573.387,1699.8019 1699.7228,1573.4671 1699.7228,1417.6237"
       style="fill:none;stroke:#55ff69;stroke-width:14.93190384000000037;stroke-linecap:round;stroke-linejoin:round;stroke-miterlimit:100;stroke-dasharray:none;stroke-opacity:1"
       id="path11336" /><path
       d="M 6.6549519,1417.6237 C 6.6549519,1573.4671 132.99081,1699.8019 288.83311,1699.8019"
       style="fill:none;stroke:#55ff69;stroke-width:14.93190384000000037;stroke-linecap:round;stroke-linejoin:round;stroke-miterlimit:100;stroke-dasharray:none;stroke-opacity:1"
       id="path11334" /><line
       stroke-miterlimit="500"
       x1="288.83316"
       y1="1699.802"
       x2="1417.5448"
       y2="1699.802"
       id="line11326"
       style="fill:none;stroke:#55ff69;stroke-width:14.93190384000000037;stroke-linecap:round;stroke-linejoin:round;stroke-miterlimit:100;stroke-dasharray:none;stroke-opacity:1" /><line
       stroke-miterlimit="500"
       x1="6.654954"
       y1="288.91214"
       x2="6.654954"
       y2="1417.6238"
       id="line11332"
       style="fill:none;stroke:#55ff69;stroke-width:14.93190384000000037;stroke-linecap:round;stroke-linejoin:round;stroke-miterlimit:100;stroke-dasharray:none;stroke-opacity:1" /><path
       d="M 288.83311,6.7339793 C 132.99081,6.7339793 6.6549519,133.06984 6.6549519,288.91214"
       style="fill:none;stroke:#55ff69;stroke-width:14.93190384000000037;stroke-linecap:round;stroke-linejoin:round;stroke-miterlimit:100;stroke-dasharray:none;stroke-opacity:1"
       id="path11340" /><line
       stroke-miterlimit="500"
       x1="1417.5448"
       y1="6.733994"
       x2="288.83316"
       y2="6.733994"
       id="line11330"
       style="fill:none;stroke:#55ff69;stroke-width:14.93190384000000037;stroke-linecap:round;stroke-linejoin:round;stroke-miterlimit:100;stroke-dasharray:none;stroke-opacity:1" /><path
       d="M 1699.7228,288.91214 C 1699.7228,133.06984 1573.387,6.7349693 1417.5448,6.7349693"
       style="fill:none;stroke:#55ff69;stroke-width:14.93190384000000037;stroke-linecap:round;stroke-linejoin:round;stroke-miterlimit:100;stroke-dasharray:none;stroke-opacity:1"
       id="path11338" /><line
       stroke-miterlimit="500"
       x1="1699.7231"
       y1="1417.6238"
       x2="1699.7231"
       y2="288.91214"
       id="line11328"
       style="fill:none;stroke:#55ff69;stroke-width:14.93190384000000037;stroke-linecap:round;stroke-linejoin:round;stroke-miterlimit:100;stroke-dasharray:none;stroke-opacity:1" /><path
       d="M 1417.5448,1671.5836 C 1558.5029,1661.1612 1674.5607,1556.7094 1699.7228,1417.6237 C 1699.7228,1573.4671 1573.387,1699.8019 1417.5448,1699.8019 L 288.83311,1699.8019 C 132.99081,1699.8019 6.6549519,1573.4671 6.6549519,1417.6237 C 31.816212,1556.7094 147.87494,1661.1612 288.83311,1671.5836 L 1417.5448,1671.5836 z "
       style="fill:white;fill-opacity:0.58823529;fill-rule:evenodd"
       id="path17676" /><path
       d="M 1699.7228,288.91214 C 1699.7228,133.06984 1573.387,6.7349693 1417.5448,6.7349693"
       style="fill:none;fill-opacity:0.07843137000000000;stroke:#31e846;stroke-width:10.24800109999999975;stroke-linecap:round;stroke-linejoin:round;stroke-miterlimit:100;stroke-dasharray:none;stroke-opacity:0.66666669"
       id="path17696" /><path
       d="M 6.6549519,1417.6237 C 30.031352,1417.6237 48.981922,1164.954 48.981922,853.26745 C 48.981922,541.58286 30.031352,288.91214 6.6549519,288.91214 L 6.6549519,1417.6237 L 6.6549519,1417.6237 z "
       style="fill:#00b415;fill-opacity:0.58823532;fill-rule:evenodd"
       id="path11324" /><path
       d="M 1699.7228,1417.6237 C 1676.3465,1417.6237 1657.3949,1164.954 1657.3949,853.26745 C 1657.3949,541.58286 1676.3455,288.91214 1699.7228,288.91214 L 1699.7228,1417.6237 z "
       style="fill:url(#linearGradient19843);fill-opacity:1;fill-rule:evenodd"
       id="path11322" /><path
       d="M 1699.7228,288.91214 C 1652.7113,168.68342 1545.1607,82.642811 1417.5448,63.170614 L 288.83311,63.170614 C 161.21708,82.642811 53.666562,168.68243 6.6549519,288.91214 C 6.6549519,133.06984 132.99081,6.7349693 288.83311,6.7349693 L 1417.5448,6.7349693 C 1573.387,6.7339793 1699.7228,133.06984 1699.7228,288.91214 z "
       style="fill:white;fill-opacity:0.54901961;fill-rule:evenodd"
       id="path14085" /></g><g
     id="g3444"
     transform="translate(-108.08581,13.19921)"><rect
       style="opacity:1;fill:#ffffff;fill-opacity:1;fill-rule:nonzero;stroke:#000000;stroke-width:0.7086615;stroke-linecap:round;stroke-linejoin:round;marker:none;marker-start:none;marker-mid:none;marker-end:none;stroke-miterlimit:4;stroke-dasharray:none;stroke-dashoffset:0;stroke-opacity:1;visibility:visible;display:inline;overflow:visible;enable-background:accumulate"
       id="rect2427"
       width="895.20062"
       height="672.79132"
       x="1415.3496"
       y="2070.3862"
       rx="111.04942"
       ry="99.200508"
       transform="translate(-1053.0426,-1345.0971)" /><g
       transform="translate(-605.19686,-1345.0971)"
       inkscape:transform-center-y="-53.442232"
       inkscape:transform-center-x="66.397924"
       id="g3245"><path
         sodipodi:nodetypes="ccsscsscc"
         id="path2510"
         d="M 1560.5969,2144.5698 C 1560.5969,2063.8769 1560.5969,1971.08 1560.5969,1890.3871 C 1560.5969,1843.3342 1585.6457,1790.2957 1609.0127,1757.2438 C 1675.8101,1662.7612 1754.2599,1636.2044 1875.2993,1636.2044 C 1875.2993,1636.2044 1875.2993,1781.4517 1875.2993,1817.7635 C 1851.0914,1817.7635 1826.8835,1817.7635 1790.5717,1817.7635 C 1766.3638,1817.7635 1717.9481,1841.9713 1717.9481,1890.3871 C 1717.9481,1963.0108 1717.9481,2144.5698 1717.9481,2144.5698 L 1560.5969,2144.5698 z"
         style="fill:#ffffff;fill-opacity:1;fill-rule:evenodd;stroke:none;stroke-width:1px;stroke-linecap:butt;stroke-linejoin:miter;stroke-opacity:1" /><path
         sodipodi:nodetypes="ccsscsscc"
         id="path3338"
         d="M 2165.7938,2144.5698 C 2165.7938,2063.8769 2165.7938,1971.08 2165.7938,1890.3871 C 2165.7938,1843.3342 2140.745,1790.2957 2117.378,1757.2438 C 2050.5806,1662.7612 1972.1308,1636.2044 1851.0914,1636.2044 C 1851.0914,1636.2044 1851.0914,1781.4517 1851.0914,1817.7635 C 1875.2993,1817.7635 1899.5072,1817.7635 1935.819,1817.7635 C 1960.0269,1817.7635 2008.4426,1841.9713 2008.4426,1890.3871 C 2008.4426,1963.0108 2008.4426,2144.5698 2008.4426,2144.5698 L 2165.7938,2144.5698 z"
         style="fill:#ffffff;fill-opacity:1;fill-rule:evenodd;stroke:none;stroke-width:1px;stroke-linecap:butt;stroke-linejoin:miter;stroke-opacity:1" /><path
         sodipodi:nodetypes="ccc"
         id="path2499"
         style="opacity:1;fill:#000000;fill-opacity:0.62745098;fill-rule:evenodd;display:inline"
         d="M 1617.8126,1744.9195 C 1751.1433,1599.6723 1986.8492,1599.46 2107.8885,1744.7072 C 2023.161,1587.3561 1714.8315,1587.5684 1617.8126,1744.9195 z" /></g><path
       d="M 1258.2115,823.68054 C 1240.0556,751.05694 1197.6918,726.84904 1112.9643,726.84904 C 1112.8933,724.83274 1112.9643,726.84904 1112.9643,725.63864 C 1119.0162,725.63864 1146.2501,725.63864 1152.3021,725.63864 C 1191.6399,725.63864 1255.1855,745.00494 1258.2115,823.68054 z"
       style="opacity:1;fill:#000000;fill-opacity:0.62745098;fill-rule:evenodd;display:inline"
       id="path2453"
       sodipodi:nodetypes="ccccc" /></g><g
     id="g3310"
     transform="translate(-1161.3996,-1331.9038)"><path
       sodipodi:nodetypes="ccccc"
       id="path3340"
       style="opacity:1;fill:#000000;fill-opacity:0.62745098;fill-rule:evenodd;display:inline"
       d="M 1415.3497,2168.7776 C 1433.5056,2096.154 1475.8694,2071.9461 1560.5969,2071.9461 C 1560.6679,2069.9298 1560.5969,2071.9461 1560.5969,2070.7357 C 1554.545,2070.7357 1527.3111,2070.7357 1521.2591,2070.7357 C 1481.9213,2070.7357 1418.3757,2090.102 1415.3497,2168.7776 z" /></g></svg>