<?xml version="1.0" encoding="UTF-8" standalone="no"?>
<svg
   xmlns:dc="http://purl.org/dc/elements/1.1/"
   xmlns:cc="http://creativecommons.org/ns#"
   xmlns:rdf="http://www.w3.org/1999/02/22-rdf-syntax-ns#"
   xmlns:svg="http://www.w3.org/2000/svg"
   xmlns="http://www.w3.org/2000/svg"
   xmlns:sodipodi="http://sodipodi.sourceforge.net/DTD/sodipodi-0.dtd"
   xmlns:inkscape="http://www.inkscape.org/namespaces/inkscape"
   enable-background="new 0 0 32 32"
   height="32px"
   id="svg2"
   version="1.1"
   viewBox="0 0 32 32"
   width="32px"
   xml:space="preserve"
   inkscape:version="0.48.5 r10040"
   sodipodi:docname="scrollkey.svg"
   inkscape:export-filename="/home/geoffrey/Downloads/scrollkey32.png"
   inkscape:export-xdpi="90"
   inkscape:export-ydpi="90"><metadata
     id="metadata15"><rdf:RDF><cc:Work
         rdf:about=""><dc:format>image/svg+xml</dc:format><dc:type
           rdf:resource="http://purl.org/dc/dcmitype/StillImage" /><dc:title></dc:title></cc:Work></rdf:RDF></metadata><defs
     id="defs13" /><sodipodi:namedview
     pagecolor="#ffffff"
     bordercolor="#666666"
     borderopacity="1"
     objecttolerance="10"
     gridtolerance="10"
     guidetolerance="10"
     inkscape:pageopacity="0"
     inkscape:pageshadow="2"
     inkscape:window-width="1920"
     inkscape:window-height="1052"
     id="namedview11"
     showgrid="false"
     inkscape:zoom="7.375"
     inkscape:cx="33.090102"
     inkscape:cy="-13.213444"
     inkscape:window-x="0"
     inkscape:window-y="0"
     inkscape:window-maximized="1"
     inkscape:current-layer="document_x5F_text_x5F_down" /><g
     id="background"><rect
       fill="none"
       height="32"
       width="32"
       id="rect4" /></g><g
     id="document_x5F_text_x5F_down"><path
       d="M24,14.059V5.584L18.414,0H0v32h24v-0.059c4.499-0.5,7.998-4.309,8-8.941C31.998,18.366,28.499,14.556,24,14.059z    M17.998,2.413L21.586,6h-3.588V2.413z M2,30V1.998h14v6.001h6v6.06c-1.752,0.194-3.352,0.89-4.652,1.941H4v2h11.517   c-0.412,0.616-0.743,1.289-0.994,2H4v2h10.059C14.022,22.329,14,22.661,14,23c0,2.829,1.308,5.351,3.349,7H2z M23,29.883   c-3.801-0.009-6.876-3.084-6.885-6.883c0.009-3.801,3.084-6.876,6.885-6.885c3.799,0.009,6.874,3.084,6.883,6.885   C29.874,26.799,26.799,29.874,23,29.883z M20,12H4v2h16V12z"
       id="path7"
       style="fill:#4180c0;fill-opacity:1" /><polygon
       points="19,22 23,26 27,22 "
       id="polygon9"
       transform="translate(0,2)"
       style="fill:#3c332f;fill-opacity:1" /><polygon
       transform="matrix(-0.99999965,4.1535208e-4,-4.9317462e-4,-0.99958465,46.01084,43.979648)"
       points="23,26 27,22 19,22 "
       id="polygon9-1"
       style="fill:#3c332f;fill-opacity:1" /></g></svg>